<mxfile host="app.diagrams.net" modified="2024-01-19T10:39:15.361Z" agent="Mozilla/5.0 (Macintosh; Intel Mac OS X 10_15_7) AppleWebKit/537.36 (KHTML, like Gecko) Chrome/120.0.0.0 Safari/537.36" etag="sRwEl2vpEicL2WO-nVXx" version="22.1.21" type="device">
  <diagram name="Page-1" id="SPnRi9kUeW95LX-y1xC7">
    <mxGraphModel dx="3700" dy="1921" grid="1" gridSize="10" guides="1" tooltips="1" connect="1" arrows="1" fold="1" page="1" pageScale="1" pageWidth="827" pageHeight="1169" math="0" shadow="0">
      <root>
        <mxCell id="0" />
        <mxCell id="1" parent="0" />
        <mxCell id="Gco-z638cPNbxUDGPCTC-143" value="" style="edgeStyle=orthogonalEdgeStyle;rounded=0;orthogonalLoop=1;jettySize=auto;html=1;" edge="1" parent="1" source="Gco-z638cPNbxUDGPCTC-1" target="Gco-z638cPNbxUDGPCTC-142">
          <mxGeometry relative="1" as="geometry">
            <Array as="points">
              <mxPoint x="310" y="-75" />
            </Array>
          </mxGeometry>
        </mxCell>
        <mxCell id="Gco-z638cPNbxUDGPCTC-217" value="" style="edgeStyle=orthogonalEdgeStyle;rounded=0;orthogonalLoop=1;jettySize=auto;html=1;" edge="1" parent="1" source="Gco-z638cPNbxUDGPCTC-1" target="Gco-z638cPNbxUDGPCTC-205">
          <mxGeometry relative="1" as="geometry">
            <mxPoint x="490" y="10" as="targetPoint" />
            <Array as="points">
              <mxPoint x="500" y="80" />
              <mxPoint x="500" y="80" />
            </Array>
          </mxGeometry>
        </mxCell>
        <mxCell id="Gco-z638cPNbxUDGPCTC-227" value="" style="edgeStyle=orthogonalEdgeStyle;rounded=0;orthogonalLoop=1;jettySize=auto;html=1;" edge="1" parent="1" source="Gco-z638cPNbxUDGPCTC-1" target="Gco-z638cPNbxUDGPCTC-124">
          <mxGeometry relative="1" as="geometry">
            <Array as="points">
              <mxPoint x="517" y="450" />
              <mxPoint x="517" y="450" />
            </Array>
          </mxGeometry>
        </mxCell>
        <mxCell id="Gco-z638cPNbxUDGPCTC-1" value="&lt;b&gt;Envois Postaux&lt;/b&gt;:&lt;br&gt;somme de quantité envoyé / jour&lt;br&gt;&lt;br&gt;id envois postaux&lt;br&gt;envois postaux&lt;br&gt;quantité envoyé&lt;br&gt;total&lt;br&gt;remise&lt;br&gt;&lt;br&gt;id commande&lt;br&gt;id destination&lt;br&gt;id lieu envoi&lt;br&gt;id transporteur&lt;br&gt;id heure&lt;br&gt;id employé&lt;br&gt;id client&lt;br&gt;id prix payé&lt;br&gt;id cout acheminement&lt;br&gt;id suivi postal&lt;br&gt;id bureau de poste" style="whiteSpace=wrap;html=1;aspect=fixed;" vertex="1" parent="1">
          <mxGeometry x="279.5" y="130" width="330" height="330" as="geometry" />
        </mxCell>
        <mxCell id="Gco-z638cPNbxUDGPCTC-2" value="Table de fait" style="text;html=1;align=center;verticalAlign=middle;resizable=0;points=[];autosize=1;strokeColor=none;fillColor=none;" vertex="1" parent="1">
          <mxGeometry x="375" y="90" width="90" height="30" as="geometry" />
        </mxCell>
        <mxCell id="Gco-z638cPNbxUDGPCTC-181" value="" style="edgeStyle=orthogonalEdgeStyle;rounded=0;orthogonalLoop=1;jettySize=auto;html=1;" edge="1" parent="1" source="Gco-z638cPNbxUDGPCTC-3" target="Gco-z638cPNbxUDGPCTC-180">
          <mxGeometry relative="1" as="geometry" />
        </mxCell>
        <mxCell id="Gco-z638cPNbxUDGPCTC-3" value="produit&lt;br&gt;&lt;br&gt;id produit&lt;br&gt;produit&lt;br&gt;nom produit&lt;br&gt;description produit (poids, dimension)&lt;br&gt;code barre&lt;br&gt;date de création&lt;br&gt;fournisseur&lt;br&gt;bénéfices&lt;br&gt;marque&lt;br&gt;catégorie&lt;br&gt;type envoie&lt;br&gt;mode de livraison" style="whiteSpace=wrap;html=1;aspect=fixed;" vertex="1" parent="1">
          <mxGeometry x="-230" y="-560" width="290" height="290" as="geometry" />
        </mxCell>
        <mxCell id="Gco-z638cPNbxUDGPCTC-4" value="destination:&lt;br&gt;&lt;br&gt;id destination&lt;br&gt;destination(national, international)&lt;br&gt;id adresse" style="whiteSpace=wrap;html=1;aspect=fixed;" vertex="1" parent="1">
          <mxGeometry x="-329" y="180.5" width="199" height="199" as="geometry" />
        </mxCell>
        <mxCell id="Gco-z638cPNbxUDGPCTC-5" value="lieu envoi&lt;br&gt;&lt;br&gt;id lieu envoie&lt;br&gt;lieu envoi&lt;br&gt;id adresse" style="whiteSpace=wrap;html=1;aspect=fixed;" vertex="1" parent="1">
          <mxGeometry x="-328" y="450" width="120" height="120" as="geometry" />
        </mxCell>
        <mxCell id="Gco-z638cPNbxUDGPCTC-166" value="" style="edgeStyle=orthogonalEdgeStyle;rounded=0;orthogonalLoop=1;jettySize=auto;html=1;" edge="1" parent="1" source="Gco-z638cPNbxUDGPCTC-6" target="Gco-z638cPNbxUDGPCTC-165">
          <mxGeometry relative="1" as="geometry">
            <Array as="points">
              <mxPoint x="920" y="-210" />
              <mxPoint x="920" y="-210" />
            </Array>
          </mxGeometry>
        </mxCell>
        <mxCell id="Gco-z638cPNbxUDGPCTC-6" value="Coût acheminement&lt;br&gt;Distance*1,33&lt;br&gt;&lt;br&gt;id cout acheminement&lt;br&gt;cout acheminement&lt;br&gt;catégorie envoie (standard, express)&lt;br&gt;type (courrier, colis)&lt;br&gt;prix&lt;br&gt;poids&lt;br&gt;id adresse" style="whiteSpace=wrap;html=1;aspect=fixed;" vertex="1" parent="1">
          <mxGeometry x="829" y="-160" width="211" height="211" as="geometry" />
        </mxCell>
        <mxCell id="Gco-z638cPNbxUDGPCTC-258" value="" style="edgeStyle=orthogonalEdgeStyle;rounded=0;orthogonalLoop=1;jettySize=auto;html=1;" edge="1" parent="1" target="Gco-z638cPNbxUDGPCTC-257">
          <mxGeometry relative="1" as="geometry">
            <mxPoint x="966" y="380.5" as="sourcePoint" />
            <Array as="points">
              <mxPoint x="966" y="360" />
            </Array>
          </mxGeometry>
        </mxCell>
        <mxCell id="Gco-z638cPNbxUDGPCTC-7" value="Prix payé&lt;br&gt;qté envoyé*prix payé&lt;br&gt;&lt;br&gt;id prix payé&lt;br&gt;prix payé&lt;br&gt;quantité &lt;br&gt;prix total&lt;br&gt;id devise&lt;br&gt;id type de transaction" style="whiteSpace=wrap;html=1;aspect=fixed;" vertex="1" parent="1">
          <mxGeometry x="827" y="240.5" width="139" height="139" as="geometry" />
        </mxCell>
        <mxCell id="Gco-z638cPNbxUDGPCTC-228" value="" style="edgeStyle=orthogonalEdgeStyle;rounded=0;orthogonalLoop=1;jettySize=auto;html=1;" edge="1" parent="1" source="Gco-z638cPNbxUDGPCTC-8" target="Gco-z638cPNbxUDGPCTC-59">
          <mxGeometry relative="1" as="geometry">
            <Array as="points">
              <mxPoint x="1060" y="640" />
              <mxPoint x="1060" y="640" />
            </Array>
          </mxGeometry>
        </mxCell>
        <mxCell id="Gco-z638cPNbxUDGPCTC-229" value="" style="edgeStyle=orthogonalEdgeStyle;rounded=0;orthogonalLoop=1;jettySize=auto;html=1;" edge="1" parent="1" source="Gco-z638cPNbxUDGPCTC-8" target="Gco-z638cPNbxUDGPCTC-60">
          <mxGeometry relative="1" as="geometry">
            <Array as="points">
              <mxPoint x="922" y="800" />
              <mxPoint x="922" y="800" />
            </Array>
          </mxGeometry>
        </mxCell>
        <mxCell id="Gco-z638cPNbxUDGPCTC-8" value="Client&lt;br&gt;qté envoyé/client&lt;br&gt;&lt;br&gt;id client&lt;br&gt;client&lt;br&gt;nom &lt;br&gt;prenom&lt;br&gt;date de naissance&lt;br&gt;genre&lt;br&gt;adresse email&lt;br&gt;numéro de téléphone&lt;br&gt;type abonnement&lt;br&gt;id catégorie client&lt;br&gt;id jour inscription" style="whiteSpace=wrap;html=1;aspect=fixed;" vertex="1" parent="1">
          <mxGeometry x="827" y="565" width="215" height="215" as="geometry" />
        </mxCell>
        <mxCell id="Gco-z638cPNbxUDGPCTC-9" value="DIM1" style="text;html=1;align=center;verticalAlign=middle;resizable=0;points=[];autosize=1;strokeColor=none;fillColor=none;" vertex="1" parent="1">
          <mxGeometry x="-170" y="-200" width="50" height="30" as="geometry" />
        </mxCell>
        <mxCell id="Gco-z638cPNbxUDGPCTC-11" value="DIM2" style="text;html=1;align=center;verticalAlign=middle;resizable=0;points=[];autosize=1;strokeColor=none;fillColor=none;" vertex="1" parent="1">
          <mxGeometry x="-329" y="150.5" width="50" height="30" as="geometry" />
        </mxCell>
        <mxCell id="Gco-z638cPNbxUDGPCTC-12" value="DIM3" style="text;html=1;align=center;verticalAlign=middle;resizable=0;points=[];autosize=1;strokeColor=none;fillColor=none;" vertex="1" parent="1">
          <mxGeometry x="-329" y="420" width="50" height="30" as="geometry" />
        </mxCell>
        <mxCell id="Gco-z638cPNbxUDGPCTC-13" value="DIM4" style="text;html=1;align=center;verticalAlign=middle;resizable=0;points=[];autosize=1;strokeColor=none;fillColor=none;" vertex="1" parent="1">
          <mxGeometry x="-39" y="650" width="50" height="30" as="geometry" />
        </mxCell>
        <mxCell id="Gco-z638cPNbxUDGPCTC-14" value="DIM5" style="text;html=1;align=center;verticalAlign=middle;resizable=0;points=[];autosize=1;strokeColor=none;fillColor=none;" vertex="1" parent="1">
          <mxGeometry x="240" y="475" width="50" height="30" as="geometry" />
        </mxCell>
        <mxCell id="Gco-z638cPNbxUDGPCTC-15" value="DIM6" style="text;html=1;align=center;verticalAlign=middle;resizable=0;points=[];autosize=1;strokeColor=none;fillColor=none;" vertex="1" parent="1">
          <mxGeometry x="440" y="520" width="50" height="30" as="geometry" />
        </mxCell>
        <mxCell id="Gco-z638cPNbxUDGPCTC-31" value="adresse&lt;br&gt;&lt;br&gt;id adresse&lt;br&gt;adresse&lt;br&gt;id ville" style="whiteSpace=wrap;html=1;aspect=fixed;" vertex="1" parent="1">
          <mxGeometry x="-531" y="250" width="120" height="120" as="geometry" />
        </mxCell>
        <mxCell id="Gco-z638cPNbxUDGPCTC-32" value="ville&lt;br&gt;&lt;br&gt;id ville&lt;br&gt;ville&lt;br&gt;id région" style="whiteSpace=wrap;html=1;aspect=fixed;" vertex="1" parent="1">
          <mxGeometry x="-691" y="249" width="120" height="120" as="geometry" />
        </mxCell>
        <mxCell id="Gco-z638cPNbxUDGPCTC-33" value="région&lt;br&gt;&lt;br&gt;id région&lt;br&gt;région&lt;br&gt;id pays" style="whiteSpace=wrap;html=1;aspect=fixed;" vertex="1" parent="1">
          <mxGeometry x="-851" y="249" width="120" height="120" as="geometry" />
        </mxCell>
        <mxCell id="Gco-z638cPNbxUDGPCTC-34" value="pays&lt;br&gt;&lt;br&gt;id pays&lt;br&gt;pays" style="whiteSpace=wrap;html=1;aspect=fixed;" vertex="1" parent="1">
          <mxGeometry x="-1010" y="250" width="120" height="120" as="geometry" />
        </mxCell>
        <mxCell id="Gco-z638cPNbxUDGPCTC-35" value="" style="endArrow=classic;html=1;rounded=0;" edge="1" parent="1">
          <mxGeometry width="50" height="50" relative="1" as="geometry">
            <mxPoint x="-331" y="308" as="sourcePoint" />
            <mxPoint x="-411" y="308.38" as="targetPoint" />
          </mxGeometry>
        </mxCell>
        <mxCell id="Gco-z638cPNbxUDGPCTC-36" value="" style="endArrow=classic;html=1;rounded=0;" edge="1" parent="1">
          <mxGeometry width="50" height="50" relative="1" as="geometry">
            <mxPoint x="-531" y="309" as="sourcePoint" />
            <mxPoint x="-571" y="308.76" as="targetPoint" />
          </mxGeometry>
        </mxCell>
        <mxCell id="Gco-z638cPNbxUDGPCTC-37" value="" style="endArrow=classic;html=1;rounded=0;" edge="1" parent="1">
          <mxGeometry width="50" height="50" relative="1" as="geometry">
            <mxPoint x="-691" y="308.62" as="sourcePoint" />
            <mxPoint x="-731" y="308.38" as="targetPoint" />
          </mxGeometry>
        </mxCell>
        <mxCell id="Gco-z638cPNbxUDGPCTC-38" value="" style="endArrow=classic;html=1;rounded=0;" edge="1" parent="1">
          <mxGeometry width="50" height="50" relative="1" as="geometry">
            <mxPoint x="-851" y="308.62" as="sourcePoint" />
            <mxPoint x="-891" y="308.38" as="targetPoint" />
          </mxGeometry>
        </mxCell>
        <mxCell id="Gco-z638cPNbxUDGPCTC-39" value="adresse&lt;br&gt;&lt;br&gt;id adresse&lt;br&gt;adresse&lt;br&gt;id ville" style="whiteSpace=wrap;html=1;aspect=fixed;" vertex="1" parent="1">
          <mxGeometry x="-529" y="451" width="120" height="120" as="geometry" />
        </mxCell>
        <mxCell id="Gco-z638cPNbxUDGPCTC-40" value="ville&lt;br&gt;&lt;br&gt;id ville&lt;br&gt;ville&lt;br&gt;id région" style="whiteSpace=wrap;html=1;aspect=fixed;" vertex="1" parent="1">
          <mxGeometry x="-688" y="450" width="120" height="120" as="geometry" />
        </mxCell>
        <mxCell id="Gco-z638cPNbxUDGPCTC-41" value="région&lt;br&gt;&lt;br&gt;id région&lt;br&gt;région&amp;nbsp;&lt;br&gt;id pays" style="whiteSpace=wrap;html=1;aspect=fixed;" vertex="1" parent="1">
          <mxGeometry x="-849" y="450" width="120" height="120" as="geometry" />
        </mxCell>
        <mxCell id="Gco-z638cPNbxUDGPCTC-42" value="pays&lt;br&gt;&lt;br&gt;id pays&lt;br&gt;pays" style="whiteSpace=wrap;html=1;aspect=fixed;" vertex="1" parent="1">
          <mxGeometry x="-1009" y="451" width="120" height="120" as="geometry" />
        </mxCell>
        <mxCell id="Gco-z638cPNbxUDGPCTC-43" value="" style="endArrow=classic;html=1;rounded=0;" edge="1" parent="1">
          <mxGeometry width="50" height="50" relative="1" as="geometry">
            <mxPoint x="-329" y="509" as="sourcePoint" />
            <mxPoint x="-409" y="509.38" as="targetPoint" />
          </mxGeometry>
        </mxCell>
        <mxCell id="Gco-z638cPNbxUDGPCTC-44" value="" style="endArrow=classic;html=1;rounded=0;" edge="1" parent="1">
          <mxGeometry width="50" height="50" relative="1" as="geometry">
            <mxPoint x="-529" y="510" as="sourcePoint" />
            <mxPoint x="-569" y="509.76" as="targetPoint" />
          </mxGeometry>
        </mxCell>
        <mxCell id="Gco-z638cPNbxUDGPCTC-45" value="" style="endArrow=classic;html=1;rounded=0;" edge="1" parent="1">
          <mxGeometry width="50" height="50" relative="1" as="geometry">
            <mxPoint x="-689" y="509.62" as="sourcePoint" />
            <mxPoint x="-729" y="509.38" as="targetPoint" />
          </mxGeometry>
        </mxCell>
        <mxCell id="Gco-z638cPNbxUDGPCTC-46" value="" style="endArrow=classic;html=1;rounded=0;" edge="1" parent="1">
          <mxGeometry width="50" height="50" relative="1" as="geometry">
            <mxPoint x="-849" y="509.62" as="sourcePoint" />
            <mxPoint x="-889" y="509.38" as="targetPoint" />
          </mxGeometry>
        </mxCell>
        <mxCell id="Gco-z638cPNbxUDGPCTC-160" value="" style="edgeStyle=orthogonalEdgeStyle;rounded=0;orthogonalLoop=1;jettySize=auto;html=1;" edge="1" parent="1" source="Gco-z638cPNbxUDGPCTC-59" target="Gco-z638cPNbxUDGPCTC-102">
          <mxGeometry relative="1" as="geometry" />
        </mxCell>
        <mxCell id="Gco-z638cPNbxUDGPCTC-59" value="jour inscription&lt;br&gt;&lt;br&gt;id jour inscription&lt;br&gt;jour inscription&lt;br&gt;id mois inscription" style="whiteSpace=wrap;html=1;aspect=fixed;" vertex="1" parent="1">
          <mxGeometry x="1106.5" y="580" width="120" height="120" as="geometry" />
        </mxCell>
        <mxCell id="Gco-z638cPNbxUDGPCTC-60" value="Catégorie client (public ou privé)&lt;br&gt;&lt;br&gt;id catégorie client&lt;br&gt;categorie client" style="whiteSpace=wrap;html=1;aspect=fixed;" vertex="1" parent="1">
          <mxGeometry x="862" y="840" width="120" height="120" as="geometry" />
        </mxCell>
        <mxCell id="Gco-z638cPNbxUDGPCTC-72" value="" style="endArrow=none;html=1;rounded=0;exitX=0.5;exitY=0;exitDx=0;exitDy=0;" edge="1" parent="1" source="Gco-z638cPNbxUDGPCTC-73">
          <mxGeometry width="50" height="50" relative="1" as="geometry">
            <mxPoint x="299.44" y="490" as="sourcePoint" />
            <mxPoint x="299" y="460" as="targetPoint" />
          </mxGeometry>
        </mxCell>
        <mxCell id="Gco-z638cPNbxUDGPCTC-73" value="heure&lt;br&gt;&lt;br&gt;id heure&lt;br&gt;heure&amp;nbsp;&lt;br&gt;id jour" style="whiteSpace=wrap;html=1;aspect=fixed;" vertex="1" parent="1">
          <mxGeometry x="240" y="505" width="120" height="120" as="geometry" />
        </mxCell>
        <mxCell id="Gco-z638cPNbxUDGPCTC-74" value="jour&lt;br&gt;&lt;br&gt;id jour&lt;br&gt;jour&amp;nbsp;&lt;br&gt;id semaine" style="whiteSpace=wrap;html=1;aspect=fixed;" vertex="1" parent="1">
          <mxGeometry x="240" y="665" width="120" height="120" as="geometry" />
        </mxCell>
        <mxCell id="Gco-z638cPNbxUDGPCTC-75" value="semaine&lt;br&gt;&lt;br&gt;id semaine&lt;br&gt;semaine&amp;nbsp;&lt;br&gt;id mois" style="whiteSpace=wrap;html=1;aspect=fixed;" vertex="1" parent="1">
          <mxGeometry x="240" y="825" width="120" height="120" as="geometry" />
        </mxCell>
        <mxCell id="Gco-z638cPNbxUDGPCTC-76" value="" style="endArrow=classic;html=1;rounded=0;entryX=0.5;entryY=0;entryDx=0;entryDy=0;" edge="1" parent="1" target="Gco-z638cPNbxUDGPCTC-74">
          <mxGeometry width="50" height="50" relative="1" as="geometry">
            <mxPoint x="300" y="625" as="sourcePoint" />
            <mxPoint x="350" y="575" as="targetPoint" />
          </mxGeometry>
        </mxCell>
        <mxCell id="Gco-z638cPNbxUDGPCTC-78" value="" style="endArrow=classic;html=1;rounded=0;entryX=0.5;entryY=0;entryDx=0;entryDy=0;" edge="1" parent="1">
          <mxGeometry width="50" height="50" relative="1" as="geometry">
            <mxPoint x="299.44" y="785" as="sourcePoint" />
            <mxPoint x="299.44" y="825" as="targetPoint" />
          </mxGeometry>
        </mxCell>
        <mxCell id="Gco-z638cPNbxUDGPCTC-162" value="" style="edgeStyle=orthogonalEdgeStyle;rounded=0;orthogonalLoop=1;jettySize=auto;html=1;" edge="1" parent="1" source="Gco-z638cPNbxUDGPCTC-102" target="Gco-z638cPNbxUDGPCTC-161">
          <mxGeometry relative="1" as="geometry" />
        </mxCell>
        <mxCell id="Gco-z638cPNbxUDGPCTC-102" value="mois inscription&lt;br&gt;&lt;br&gt;id mois inscription&lt;br&gt;mois inscription&lt;br&gt;id trimestre inscription" style="whiteSpace=wrap;html=1;aspect=fixed;" vertex="1" parent="1">
          <mxGeometry x="1290" y="580" width="120" height="120" as="geometry" />
        </mxCell>
        <mxCell id="Gco-z638cPNbxUDGPCTC-219" value="" style="edgeStyle=orthogonalEdgeStyle;rounded=0;orthogonalLoop=1;jettySize=auto;html=1;" edge="1" parent="1" source="Gco-z638cPNbxUDGPCTC-105" target="Gco-z638cPNbxUDGPCTC-106">
          <mxGeometry relative="1" as="geometry" />
        </mxCell>
        <mxCell id="Gco-z638cPNbxUDGPCTC-105" value="mois&lt;br&gt;&lt;br&gt;id mois&amp;nbsp;&lt;br&gt;mois&lt;br&gt;id trimestre" style="whiteSpace=wrap;html=1;aspect=fixed;" vertex="1" parent="1">
          <mxGeometry x="240" y="985" width="120" height="120" as="geometry" />
        </mxCell>
        <mxCell id="Gco-z638cPNbxUDGPCTC-221" value="" style="edgeStyle=orthogonalEdgeStyle;rounded=0;orthogonalLoop=1;jettySize=auto;html=1;" edge="1" parent="1" source="Gco-z638cPNbxUDGPCTC-106" target="Gco-z638cPNbxUDGPCTC-220">
          <mxGeometry relative="1" as="geometry" />
        </mxCell>
        <mxCell id="Gco-z638cPNbxUDGPCTC-106" value="trimestre&lt;br&gt;&lt;br&gt;id trimestre&lt;br&gt;trimestre&lt;br&gt;id année" style="whiteSpace=wrap;html=1;aspect=fixed;" vertex="1" parent="1">
          <mxGeometry x="240" y="1145" width="120" height="120" as="geometry" />
        </mxCell>
        <mxCell id="Gco-z638cPNbxUDGPCTC-107" value="" style="endArrow=classic;html=1;rounded=0;entryX=0.5;entryY=0;entryDx=0;entryDy=0;" edge="1" parent="1" target="Gco-z638cPNbxUDGPCTC-105">
          <mxGeometry width="50" height="50" relative="1" as="geometry">
            <mxPoint x="300" y="945" as="sourcePoint" />
            <mxPoint x="350" y="895" as="targetPoint" />
          </mxGeometry>
        </mxCell>
        <mxCell id="Gco-z638cPNbxUDGPCTC-108" value="" style="endArrow=classic;html=1;rounded=0;entryX=0.5;entryY=0;entryDx=0;entryDy=0;" edge="1" parent="1">
          <mxGeometry width="50" height="50" relative="1" as="geometry">
            <mxPoint x="299.44" y="1105" as="sourcePoint" />
            <mxPoint x="299.44" y="1145" as="targetPoint" />
          </mxGeometry>
        </mxCell>
        <mxCell id="Gco-z638cPNbxUDGPCTC-111" value="" style="endArrow=classic;html=1;rounded=0;entryX=-0.011;entryY=0.117;entryDx=0;entryDy=0;entryPerimeter=0;exitX=1;exitY=1;exitDx=0;exitDy=0;" edge="1" parent="1" source="Gco-z638cPNbxUDGPCTC-1" target="Gco-z638cPNbxUDGPCTC-8">
          <mxGeometry width="50" height="50" relative="1" as="geometry">
            <mxPoint x="480.5" y="410" as="sourcePoint" />
            <mxPoint x="530.5" y="360" as="targetPoint" />
          </mxGeometry>
        </mxCell>
        <mxCell id="Gco-z638cPNbxUDGPCTC-112" value="" style="endArrow=classic;html=1;rounded=0;entryX=-0.009;entryY=0.406;entryDx=0;entryDy=0;entryPerimeter=0;" edge="1" parent="1" target="Gco-z638cPNbxUDGPCTC-7">
          <mxGeometry width="50" height="50" relative="1" as="geometry">
            <mxPoint x="610" y="299" as="sourcePoint" />
            <mxPoint x="600" y="300" as="targetPoint" />
          </mxGeometry>
        </mxCell>
        <mxCell id="Gco-z638cPNbxUDGPCTC-113" value="" style="endArrow=classic;html=1;rounded=0;entryX=0;entryY=1;entryDx=0;entryDy=0;exitX=1;exitY=0;exitDx=0;exitDy=0;" edge="1" parent="1" source="Gco-z638cPNbxUDGPCTC-1" target="Gco-z638cPNbxUDGPCTC-6">
          <mxGeometry width="50" height="50" relative="1" as="geometry">
            <mxPoint x="480.5" y="210" as="sourcePoint" />
            <mxPoint x="530.5" y="160" as="targetPoint" />
          </mxGeometry>
        </mxCell>
        <mxCell id="Gco-z638cPNbxUDGPCTC-114" value="" style="endArrow=classic;html=1;rounded=0;entryX=1;entryY=0.5;entryDx=0;entryDy=0;exitX=-0.016;exitY=0.352;exitDx=0;exitDy=0;exitPerimeter=0;" edge="1" parent="1" source="Gco-z638cPNbxUDGPCTC-1" target="Gco-z638cPNbxUDGPCTC-4">
          <mxGeometry width="50" height="50" relative="1" as="geometry">
            <mxPoint x="270" y="280" as="sourcePoint" />
            <mxPoint x="20" y="270" as="targetPoint" />
          </mxGeometry>
        </mxCell>
        <mxCell id="Gco-z638cPNbxUDGPCTC-115" value="" style="endArrow=classic;html=1;rounded=0;entryX=1;entryY=0.25;entryDx=0;entryDy=0;exitX=0;exitY=0.5;exitDx=0;exitDy=0;" edge="1" parent="1" source="Gco-z638cPNbxUDGPCTC-1">
          <mxGeometry width="50" height="50" relative="1" as="geometry">
            <mxPoint x="273" y="310" as="sourcePoint" />
            <mxPoint x="-208" y="506" as="targetPoint" />
          </mxGeometry>
        </mxCell>
        <mxCell id="Gco-z638cPNbxUDGPCTC-117" value="" style="endArrow=classic;html=1;rounded=0;exitX=0;exitY=0;exitDx=0;exitDy=0;entryX=1;entryY=1;entryDx=0;entryDy=0;" edge="1" parent="1" source="Gco-z638cPNbxUDGPCTC-1" target="Gco-z638cPNbxUDGPCTC-180">
          <mxGeometry width="50" height="50" relative="1" as="geometry">
            <mxPoint x="-50" y="50" as="sourcePoint" />
            <mxPoint as="targetPoint" />
          </mxGeometry>
        </mxCell>
        <mxCell id="Gco-z638cPNbxUDGPCTC-118" value="DIM7" style="text;html=1;align=center;verticalAlign=middle;resizable=0;points=[];autosize=1;strokeColor=none;fillColor=none;" vertex="1" parent="1">
          <mxGeometry x="829" y="530" width="50" height="30" as="geometry" />
        </mxCell>
        <mxCell id="Gco-z638cPNbxUDGPCTC-124" value="employé&lt;br&gt;&lt;br&gt;id employé&lt;br&gt;employé&lt;br&gt;nom&amp;nbsp;&lt;br&gt;prénom&lt;br&gt;date de naissance&lt;br&gt;genre&lt;br&gt;code référence&lt;br&gt;début de contrat" style="whiteSpace=wrap;html=1;aspect=fixed;" vertex="1" parent="1">
          <mxGeometry x="440" y="550" width="154" height="154" as="geometry" />
        </mxCell>
        <mxCell id="Gco-z638cPNbxUDGPCTC-127" value="DIM8" style="text;html=1;align=center;verticalAlign=middle;resizable=0;points=[];autosize=1;strokeColor=none;fillColor=none;" vertex="1" parent="1">
          <mxGeometry x="827" y="210.5" width="50" height="30" as="geometry" />
        </mxCell>
        <mxCell id="Gco-z638cPNbxUDGPCTC-156" value="" style="edgeStyle=orthogonalEdgeStyle;rounded=0;orthogonalLoop=1;jettySize=auto;html=1;" edge="1" parent="1" source="Gco-z638cPNbxUDGPCTC-142" target="Gco-z638cPNbxUDGPCTC-155">
          <mxGeometry relative="1" as="geometry" />
        </mxCell>
        <mxCell id="Gco-z638cPNbxUDGPCTC-142" value="bureau de poste&lt;br&gt;somme des envois postaux / bureau de poste&lt;br&gt;&lt;br&gt;id bureau de poste&lt;br&gt;bureau de poste&lt;br&gt;localisation&lt;br&gt;nombre employés&lt;br&gt;nombre produits&lt;br&gt;CA&lt;br&gt;id adresse" style="whiteSpace=wrap;html=1;aspect=fixed;direction=south;" vertex="1" parent="1">
          <mxGeometry x="200" y="-200" width="170.5" height="170.5" as="geometry" />
        </mxCell>
        <mxCell id="Gco-z638cPNbxUDGPCTC-151" value="" style="edgeStyle=orthogonalEdgeStyle;rounded=0;orthogonalLoop=1;jettySize=auto;html=1;" edge="1" parent="1" source="Gco-z638cPNbxUDGPCTC-148" target="Gco-z638cPNbxUDGPCTC-150">
          <mxGeometry relative="1" as="geometry" />
        </mxCell>
        <mxCell id="Gco-z638cPNbxUDGPCTC-148" value="ville&lt;br&gt;&lt;br&gt;id ville&lt;br&gt;ville&lt;br&gt;id région" style="whiteSpace=wrap;html=1;aspect=fixed;" vertex="1" parent="1">
          <mxGeometry x="230.25" y="-560" width="110" height="110" as="geometry" />
        </mxCell>
        <mxCell id="Gco-z638cPNbxUDGPCTC-159" value="" style="edgeStyle=orthogonalEdgeStyle;rounded=0;orthogonalLoop=1;jettySize=auto;html=1;" edge="1" parent="1" source="Gco-z638cPNbxUDGPCTC-150" target="Gco-z638cPNbxUDGPCTC-158">
          <mxGeometry relative="1" as="geometry" />
        </mxCell>
        <mxCell id="Gco-z638cPNbxUDGPCTC-150" value="région&lt;br&gt;&lt;br&gt;id région&lt;br&gt;région&lt;br&gt;id pays" style="whiteSpace=wrap;html=1;aspect=fixed;" vertex="1" parent="1">
          <mxGeometry x="230.25" y="-750" width="110" height="110" as="geometry" />
        </mxCell>
        <mxCell id="Gco-z638cPNbxUDGPCTC-157" value="" style="edgeStyle=orthogonalEdgeStyle;rounded=0;orthogonalLoop=1;jettySize=auto;html=1;" edge="1" parent="1" source="Gco-z638cPNbxUDGPCTC-155" target="Gco-z638cPNbxUDGPCTC-148">
          <mxGeometry relative="1" as="geometry" />
        </mxCell>
        <mxCell id="Gco-z638cPNbxUDGPCTC-155" value="adresse&lt;br&gt;&lt;br&gt;id adresse&lt;br&gt;adresse&lt;br&gt;id ville" style="whiteSpace=wrap;html=1;aspect=fixed;direction=south;" vertex="1" parent="1">
          <mxGeometry x="230.25" y="-390" width="110" height="110" as="geometry" />
        </mxCell>
        <mxCell id="Gco-z638cPNbxUDGPCTC-158" value="pays&lt;br&gt;&lt;br&gt;id pays&lt;br&gt;pays" style="whiteSpace=wrap;html=1;aspect=fixed;" vertex="1" parent="1">
          <mxGeometry x="230.25" y="-940" width="110" height="110" as="geometry" />
        </mxCell>
        <mxCell id="Gco-z638cPNbxUDGPCTC-164" value="" style="edgeStyle=orthogonalEdgeStyle;rounded=0;orthogonalLoop=1;jettySize=auto;html=1;" edge="1" parent="1" source="Gco-z638cPNbxUDGPCTC-161" target="Gco-z638cPNbxUDGPCTC-163">
          <mxGeometry relative="1" as="geometry" />
        </mxCell>
        <mxCell id="Gco-z638cPNbxUDGPCTC-161" value="trimestre inscription&lt;br&gt;&lt;br&gt;id trimestre inscription&lt;br&gt;trimestre inscription&lt;br&gt;id année inscription" style="whiteSpace=wrap;html=1;aspect=fixed;" vertex="1" parent="1">
          <mxGeometry x="1490" y="580" width="120" height="120" as="geometry" />
        </mxCell>
        <mxCell id="Gco-z638cPNbxUDGPCTC-163" value="année inscription&lt;br&gt;&lt;br&gt;id année inscription&lt;br&gt;année inscription&lt;br&gt;" style="whiteSpace=wrap;html=1;aspect=fixed;" vertex="1" parent="1">
          <mxGeometry x="1690" y="580" width="120" height="120" as="geometry" />
        </mxCell>
        <mxCell id="Gco-z638cPNbxUDGPCTC-168" value="" style="edgeStyle=orthogonalEdgeStyle;rounded=0;orthogonalLoop=1;jettySize=auto;html=1;" edge="1" parent="1" source="Gco-z638cPNbxUDGPCTC-165" target="Gco-z638cPNbxUDGPCTC-167">
          <mxGeometry relative="1" as="geometry" />
        </mxCell>
        <mxCell id="Gco-z638cPNbxUDGPCTC-165" value="adresse&lt;br&gt;&lt;br&gt;id adresse&lt;br&gt;adresse&lt;br&gt;id ville" style="whiteSpace=wrap;html=1;aspect=fixed;" vertex="1" parent="1">
          <mxGeometry x="864" y="-360" width="120" height="120" as="geometry" />
        </mxCell>
        <mxCell id="Gco-z638cPNbxUDGPCTC-170" value="" style="edgeStyle=orthogonalEdgeStyle;rounded=0;orthogonalLoop=1;jettySize=auto;html=1;" edge="1" parent="1" source="Gco-z638cPNbxUDGPCTC-167" target="Gco-z638cPNbxUDGPCTC-169">
          <mxGeometry relative="1" as="geometry" />
        </mxCell>
        <mxCell id="Gco-z638cPNbxUDGPCTC-167" value="ville&amp;nbsp;&lt;br&gt;&lt;br&gt;id ville&lt;br&gt;ville&lt;br&gt;is région" style="whiteSpace=wrap;html=1;aspect=fixed;" vertex="1" parent="1">
          <mxGeometry x="864" y="-560" width="120" height="120" as="geometry" />
        </mxCell>
        <mxCell id="Gco-z638cPNbxUDGPCTC-172" value="" style="edgeStyle=orthogonalEdgeStyle;rounded=0;orthogonalLoop=1;jettySize=auto;html=1;" edge="1" parent="1" source="Gco-z638cPNbxUDGPCTC-169">
          <mxGeometry relative="1" as="geometry">
            <mxPoint x="924" y="-840" as="targetPoint" />
          </mxGeometry>
        </mxCell>
        <mxCell id="Gco-z638cPNbxUDGPCTC-169" value="région&lt;br&gt;&lt;br&gt;id région&lt;br&gt;région&lt;br&gt;id pays" style="whiteSpace=wrap;html=1;aspect=fixed;" vertex="1" parent="1">
          <mxGeometry x="864" y="-760" width="120" height="120" as="geometry" />
        </mxCell>
        <mxCell id="Gco-z638cPNbxUDGPCTC-171" value="pays&lt;br&gt;&lt;br&gt;id pays &lt;br&gt;pays" style="whiteSpace=wrap;html=1;aspect=fixed;" vertex="1" parent="1">
          <mxGeometry x="862" y="-960" width="120" height="120" as="geometry" />
        </mxCell>
        <mxCell id="Gco-z638cPNbxUDGPCTC-179" value="DIM9" style="text;html=1;align=center;verticalAlign=middle;resizable=0;points=[];autosize=1;strokeColor=none;fillColor=none;" vertex="1" parent="1">
          <mxGeometry x="827" y="-190" width="50" height="30" as="geometry" />
        </mxCell>
        <mxCell id="Gco-z638cPNbxUDGPCTC-195" value="" style="edgeStyle=orthogonalEdgeStyle;rounded=0;orthogonalLoop=1;jettySize=auto;html=1;" edge="1" parent="1" source="Gco-z638cPNbxUDGPCTC-180" target="Gco-z638cPNbxUDGPCTC-194">
          <mxGeometry relative="1" as="geometry" />
        </mxCell>
        <mxCell id="Gco-z638cPNbxUDGPCTC-180" value="commande&lt;br&gt;&lt;br&gt;id commande&lt;br&gt;commande&lt;br&gt;stockage&lt;br&gt;entrepot&lt;br&gt;id heure&lt;br&gt;id produit" style="whiteSpace=wrap;html=1;aspect=fixed;" vertex="1" parent="1">
          <mxGeometry x="-170" y="-165" width="170" height="170" as="geometry" />
        </mxCell>
        <mxCell id="Gco-z638cPNbxUDGPCTC-197" value="" style="edgeStyle=orthogonalEdgeStyle;rounded=0;orthogonalLoop=1;jettySize=auto;html=1;" edge="1" parent="1" source="Gco-z638cPNbxUDGPCTC-194" target="Gco-z638cPNbxUDGPCTC-196">
          <mxGeometry relative="1" as="geometry" />
        </mxCell>
        <mxCell id="Gco-z638cPNbxUDGPCTC-194" value="heure&amp;nbsp;&lt;br&gt;&lt;br&gt;id heure&lt;br&gt;heure&lt;br&gt;id jour" style="whiteSpace=wrap;html=1;aspect=fixed;" vertex="1" parent="1">
          <mxGeometry x="-420" y="-165" width="170" height="170" as="geometry" />
        </mxCell>
        <mxCell id="Gco-z638cPNbxUDGPCTC-223" value="" style="edgeStyle=orthogonalEdgeStyle;rounded=0;orthogonalLoop=1;jettySize=auto;html=1;" edge="1" parent="1" source="Gco-z638cPNbxUDGPCTC-196" target="Gco-z638cPNbxUDGPCTC-222">
          <mxGeometry relative="1" as="geometry" />
        </mxCell>
        <mxCell id="Gco-z638cPNbxUDGPCTC-196" value="jour&amp;nbsp;&lt;br&gt;&lt;br&gt;id jour&lt;br&gt;semaine&lt;br&gt;id semaine" style="whiteSpace=wrap;html=1;aspect=fixed;" vertex="1" parent="1">
          <mxGeometry x="-670" y="-165" width="170" height="170" as="geometry" />
        </mxCell>
        <mxCell id="Gco-z638cPNbxUDGPCTC-201" value="" style="edgeStyle=orthogonalEdgeStyle;rounded=0;orthogonalLoop=1;jettySize=auto;html=1;" edge="1" parent="1" source="Gco-z638cPNbxUDGPCTC-198" target="Gco-z638cPNbxUDGPCTC-200">
          <mxGeometry relative="1" as="geometry" />
        </mxCell>
        <mxCell id="Gco-z638cPNbxUDGPCTC-198" value="mois&lt;br&gt;&lt;br&gt;id mois&lt;br&gt;mois&lt;br&gt;id année" style="whiteSpace=wrap;html=1;aspect=fixed;" vertex="1" parent="1">
          <mxGeometry x="-1160" y="-164.75" width="170" height="170" as="geometry" />
        </mxCell>
        <mxCell id="Gco-z638cPNbxUDGPCTC-226" value="" style="edgeStyle=orthogonalEdgeStyle;rounded=0;orthogonalLoop=1;jettySize=auto;html=1;" edge="1" parent="1" source="Gco-z638cPNbxUDGPCTC-200" target="Gco-z638cPNbxUDGPCTC-225">
          <mxGeometry relative="1" as="geometry" />
        </mxCell>
        <mxCell id="Gco-z638cPNbxUDGPCTC-200" value="trimestre&lt;br&gt;&lt;br&gt;id trimestre&lt;br&gt;trimestre&lt;br&gt;id année" style="whiteSpace=wrap;html=1;aspect=fixed;" vertex="1" parent="1">
          <mxGeometry x="-1410" y="-164.75" width="170" height="170" as="geometry" />
        </mxCell>
        <mxCell id="Gco-z638cPNbxUDGPCTC-204" value="" style="edgeStyle=orthogonalEdgeStyle;rounded=0;orthogonalLoop=1;jettySize=auto;html=1;" edge="1" parent="1" target="Gco-z638cPNbxUDGPCTC-207">
          <mxGeometry relative="1" as="geometry">
            <mxPoint x="522.12" y="-149.5" as="sourcePoint" />
            <Array as="points">
              <mxPoint x="522.12" y="-170" />
              <mxPoint x="522.12" y="-170" />
            </Array>
          </mxGeometry>
        </mxCell>
        <mxCell id="Gco-z638cPNbxUDGPCTC-205" value="Suivi postal&lt;br&gt;&lt;br&gt;id suivi postal&lt;br&gt;suivi postal&lt;br&gt;cachet date envoi du produit&lt;br&gt;id adresse&lt;br&gt;id heure" style="whiteSpace=wrap;html=1;aspect=fixed;" vertex="1" parent="1">
          <mxGeometry x="480" y="-149.5" width="209.5" height="209.5" as="geometry" />
        </mxCell>
        <mxCell id="Gco-z638cPNbxUDGPCTC-206" value="" style="edgeStyle=orthogonalEdgeStyle;rounded=0;orthogonalLoop=1;jettySize=auto;html=1;" edge="1" parent="1" source="Gco-z638cPNbxUDGPCTC-207" target="Gco-z638cPNbxUDGPCTC-209">
          <mxGeometry relative="1" as="geometry" />
        </mxCell>
        <mxCell id="Gco-z638cPNbxUDGPCTC-207" value="heure&lt;br&gt;&lt;br&gt;id heure&lt;br&gt;heure&lt;br&gt;id semaine" style="whiteSpace=wrap;html=1;aspect=fixed;" vertex="1" parent="1">
          <mxGeometry x="461.87" y="-350" width="120" height="120" as="geometry" />
        </mxCell>
        <mxCell id="Gco-z638cPNbxUDGPCTC-208" value="" style="edgeStyle=orthogonalEdgeStyle;rounded=0;orthogonalLoop=1;jettySize=auto;html=1;" edge="1" parent="1" source="Gco-z638cPNbxUDGPCTC-209" target="Gco-z638cPNbxUDGPCTC-211">
          <mxGeometry relative="1" as="geometry" />
        </mxCell>
        <mxCell id="Gco-z638cPNbxUDGPCTC-209" value="semaine&lt;br&gt;&lt;br&gt;id semaine&lt;br&gt;semaine&lt;br&gt;id mois" style="whiteSpace=wrap;html=1;aspect=fixed;" vertex="1" parent="1">
          <mxGeometry x="461.87" y="-550" width="120" height="120" as="geometry" />
        </mxCell>
        <mxCell id="Gco-z638cPNbxUDGPCTC-210" value="" style="edgeStyle=orthogonalEdgeStyle;rounded=0;orthogonalLoop=1;jettySize=auto;html=1;" edge="1" parent="1" source="Gco-z638cPNbxUDGPCTC-211" target="Gco-z638cPNbxUDGPCTC-212">
          <mxGeometry relative="1" as="geometry" />
        </mxCell>
        <mxCell id="Gco-z638cPNbxUDGPCTC-211" value="mois&amp;nbsp;&lt;br&gt;&lt;br&gt;id mois&lt;br&gt;mois&lt;br&gt;id année" style="whiteSpace=wrap;html=1;aspect=fixed;" vertex="1" parent="1">
          <mxGeometry x="461.87" y="-750" width="120" height="120" as="geometry" />
        </mxCell>
        <mxCell id="Gco-z638cPNbxUDGPCTC-212" value="année&lt;br&gt;&lt;br&gt;id année&lt;br&gt;année" style="whiteSpace=wrap;html=1;aspect=fixed;" vertex="1" parent="1">
          <mxGeometry x="461.87" y="-950" width="120" height="120" as="geometry" />
        </mxCell>
        <mxCell id="Gco-z638cPNbxUDGPCTC-218" value="DIM10" style="text;html=1;align=center;verticalAlign=middle;resizable=0;points=[];autosize=1;strokeColor=none;fillColor=none;" vertex="1" parent="1">
          <mxGeometry x="452.12" y="-179.5" width="60" height="30" as="geometry" />
        </mxCell>
        <mxCell id="Gco-z638cPNbxUDGPCTC-220" value="année&lt;br&gt;&lt;br&gt;id année&lt;br&gt;année" style="whiteSpace=wrap;html=1;aspect=fixed;" vertex="1" parent="1">
          <mxGeometry x="240" y="1345" width="120" height="120" as="geometry" />
        </mxCell>
        <mxCell id="Gco-z638cPNbxUDGPCTC-224" value="" style="edgeStyle=orthogonalEdgeStyle;rounded=0;orthogonalLoop=1;jettySize=auto;html=1;" edge="1" parent="1" source="Gco-z638cPNbxUDGPCTC-222" target="Gco-z638cPNbxUDGPCTC-198">
          <mxGeometry relative="1" as="geometry" />
        </mxCell>
        <mxCell id="Gco-z638cPNbxUDGPCTC-222" value="semaine&lt;br&gt;&lt;br&gt;id semaine&lt;br&gt;semaine&lt;br&gt;id mois" style="whiteSpace=wrap;html=1;aspect=fixed;" vertex="1" parent="1">
          <mxGeometry x="-920" y="-165" width="170" height="170" as="geometry" />
        </mxCell>
        <mxCell id="Gco-z638cPNbxUDGPCTC-225" value="année&lt;br&gt;&lt;br&gt;id année&lt;br&gt;année" style="whiteSpace=wrap;html=1;aspect=fixed;" vertex="1" parent="1">
          <mxGeometry x="-1660" y="-164.75" width="170" height="170" as="geometry" />
        </mxCell>
        <mxCell id="Gco-z638cPNbxUDGPCTC-230" value="Plus important en flocon : TEMPS et ADRESSE&lt;br&gt;&lt;br&gt;Flocon : notion de contenance&lt;br&gt;Exemple: dans une ville, j&#39;ai des adresses, j&#39;ai des régions&lt;br&gt;&lt;br&gt;notion appartenance:&lt;br&gt;Exemple: Prénom nous appartient, on ne peut pas le dissocier" style="text;html=1;align=center;verticalAlign=middle;resizable=0;points=[];autosize=1;strokeColor=none;fillColor=none;" vertex="1" parent="1">
          <mxGeometry x="-827" y="-800" width="350" height="110" as="geometry" />
        </mxCell>
        <mxCell id="Gco-z638cPNbxUDGPCTC-234" value="" style="edgeStyle=orthogonalEdgeStyle;rounded=0;orthogonalLoop=1;jettySize=auto;html=1;" edge="1" parent="1" target="Gco-z638cPNbxUDGPCTC-233">
          <mxGeometry relative="1" as="geometry">
            <mxPoint x="-90" y="755" as="sourcePoint" />
          </mxGeometry>
        </mxCell>
        <mxCell id="Gco-z638cPNbxUDGPCTC-266" value="" style="edgeStyle=orthogonalEdgeStyle;rounded=0;orthogonalLoop=1;jettySize=auto;html=1;" edge="1" parent="1" source="Gco-z638cPNbxUDGPCTC-232" target="Gco-z638cPNbxUDGPCTC-265">
          <mxGeometry relative="1" as="geometry">
            <Array as="points">
              <mxPoint x="10" y="880" />
              <mxPoint x="10" y="880" />
            </Array>
          </mxGeometry>
        </mxCell>
        <mxCell id="Gco-z638cPNbxUDGPCTC-232" value="transporteur&lt;br&gt;&lt;br&gt;id transporteur&lt;br&gt;transporteur&lt;br&gt;nom&lt;br&gt;plan de tournée&lt;br&gt;id adresse&lt;br&gt;id type de véhicule&lt;br&gt;id type de service" style="whiteSpace=wrap;html=1;aspect=fixed;" vertex="1" parent="1">
          <mxGeometry x="-139" y="680" width="180" height="180" as="geometry" />
        </mxCell>
        <mxCell id="Gco-z638cPNbxUDGPCTC-237" value="" style="edgeStyle=orthogonalEdgeStyle;rounded=0;orthogonalLoop=1;jettySize=auto;html=1;" edge="1" parent="1" source="Gco-z638cPNbxUDGPCTC-233" target="Gco-z638cPNbxUDGPCTC-236">
          <mxGeometry relative="1" as="geometry" />
        </mxCell>
        <mxCell id="Gco-z638cPNbxUDGPCTC-233" value="type de véhicule&lt;br&gt;&lt;br&gt;id type de véhicule&lt;br&gt;type de véhicule&lt;br&gt;id immatriculation" style="whiteSpace=wrap;html=1;aspect=fixed;" vertex="1" parent="1">
          <mxGeometry x="-360" y="680" width="150" height="150" as="geometry" />
        </mxCell>
        <mxCell id="Gco-z638cPNbxUDGPCTC-235" value="" style="endArrow=classic;html=1;rounded=0;exitX=0;exitY=0.75;exitDx=0;exitDy=0;entryX=1;entryY=0;entryDx=0;entryDy=0;" edge="1" parent="1" source="Gco-z638cPNbxUDGPCTC-1" target="Gco-z638cPNbxUDGPCTC-232">
          <mxGeometry width="50" height="50" relative="1" as="geometry">
            <mxPoint x="140" y="660" as="sourcePoint" />
            <mxPoint x="30" y="680" as="targetPoint" />
          </mxGeometry>
        </mxCell>
        <mxCell id="Gco-z638cPNbxUDGPCTC-236" value="immatriculation&lt;br&gt;&lt;br&gt;id immatriculation&lt;br&gt;immatriculation" style="whiteSpace=wrap;html=1;aspect=fixed;" vertex="1" parent="1">
          <mxGeometry x="-559" y="680" width="150" height="150" as="geometry" />
        </mxCell>
        <mxCell id="Gco-z638cPNbxUDGPCTC-239" value="DIM11" style="text;html=1;align=center;verticalAlign=middle;resizable=0;points=[];autosize=1;strokeColor=none;fillColor=none;" vertex="1" parent="1">
          <mxGeometry x="200" y="-230" width="60" height="30" as="geometry" />
        </mxCell>
        <mxCell id="Gco-z638cPNbxUDGPCTC-241" value="" style="edgeStyle=orthogonalEdgeStyle;rounded=0;orthogonalLoop=1;jettySize=auto;html=1;" edge="1" parent="1" target="Gco-z638cPNbxUDGPCTC-243">
          <mxGeometry relative="1" as="geometry">
            <mxPoint x="667.5" y="-150" as="sourcePoint" />
            <Array as="points">
              <mxPoint x="667.5" y="-200" />
              <mxPoint x="667.5" y="-200" />
            </Array>
          </mxGeometry>
        </mxCell>
        <mxCell id="Gco-z638cPNbxUDGPCTC-242" value="" style="edgeStyle=orthogonalEdgeStyle;rounded=0;orthogonalLoop=1;jettySize=auto;html=1;" edge="1" parent="1" source="Gco-z638cPNbxUDGPCTC-243" target="Gco-z638cPNbxUDGPCTC-245">
          <mxGeometry relative="1" as="geometry" />
        </mxCell>
        <mxCell id="Gco-z638cPNbxUDGPCTC-243" value="adresse&lt;br&gt;&lt;br&gt;id adresse&lt;br&gt;adresse&lt;br&gt;id ville" style="whiteSpace=wrap;html=1;aspect=fixed;" vertex="1" parent="1">
          <mxGeometry x="611.5" y="-350" width="120" height="120" as="geometry" />
        </mxCell>
        <mxCell id="Gco-z638cPNbxUDGPCTC-244" value="" style="edgeStyle=orthogonalEdgeStyle;rounded=0;orthogonalLoop=1;jettySize=auto;html=1;" edge="1" parent="1" source="Gco-z638cPNbxUDGPCTC-245" target="Gco-z638cPNbxUDGPCTC-247">
          <mxGeometry relative="1" as="geometry" />
        </mxCell>
        <mxCell id="Gco-z638cPNbxUDGPCTC-245" value="ville&amp;nbsp;&lt;br&gt;&lt;br&gt;id ville&lt;br&gt;ville&lt;br&gt;is région" style="whiteSpace=wrap;html=1;aspect=fixed;" vertex="1" parent="1">
          <mxGeometry x="611.5" y="-550" width="120" height="120" as="geometry" />
        </mxCell>
        <mxCell id="Gco-z638cPNbxUDGPCTC-246" value="" style="edgeStyle=orthogonalEdgeStyle;rounded=0;orthogonalLoop=1;jettySize=auto;html=1;" edge="1" parent="1" source="Gco-z638cPNbxUDGPCTC-247">
          <mxGeometry relative="1" as="geometry">
            <mxPoint x="671.5" y="-830" as="targetPoint" />
          </mxGeometry>
        </mxCell>
        <mxCell id="Gco-z638cPNbxUDGPCTC-247" value="région&lt;br&gt;&lt;br&gt;id région&lt;br&gt;région&lt;br&gt;id pays" style="whiteSpace=wrap;html=1;aspect=fixed;" vertex="1" parent="1">
          <mxGeometry x="611.5" y="-750" width="120" height="120" as="geometry" />
        </mxCell>
        <mxCell id="Gco-z638cPNbxUDGPCTC-248" value="pays&lt;br&gt;&lt;br&gt;id pays &lt;br&gt;pays" style="whiteSpace=wrap;html=1;aspect=fixed;" vertex="1" parent="1">
          <mxGeometry x="609.5" y="-950" width="120" height="120" as="geometry" />
        </mxCell>
        <mxCell id="Gco-z638cPNbxUDGPCTC-262" value="" style="edgeStyle=orthogonalEdgeStyle;rounded=0;orthogonalLoop=1;jettySize=auto;html=1;" edge="1" parent="1" source="Gco-z638cPNbxUDGPCTC-250" target="Gco-z638cPNbxUDGPCTC-261">
          <mxGeometry relative="1" as="geometry" />
        </mxCell>
        <mxCell id="Gco-z638cPNbxUDGPCTC-250" value="ville&lt;br&gt;&lt;br&gt;id ville&lt;br&gt;ville&lt;br&gt;id région" style="whiteSpace=wrap;html=1;aspect=fixed;" vertex="1" parent="1">
          <mxGeometry x="-390" y="920" width="130" height="130" as="geometry" />
        </mxCell>
        <mxCell id="Gco-z638cPNbxUDGPCTC-255" value="adresse&lt;br&gt;&lt;br&gt;id adresse&lt;br&gt;adresse&lt;br&gt;id ville" style="whiteSpace=wrap;html=1;aspect=fixed;" vertex="1" parent="1">
          <mxGeometry x="-240" y="920" width="130" height="130" as="geometry" />
        </mxCell>
        <mxCell id="Gco-z638cPNbxUDGPCTC-257" value="type de transaction&lt;br&gt;&lt;br&gt;id type de transaction&lt;br&gt;type de transaction" style="whiteSpace=wrap;html=1;aspect=fixed;" vertex="1" parent="1">
          <mxGeometry x="1046" y="330" width="120" height="120" as="geometry" />
        </mxCell>
        <mxCell id="Gco-z638cPNbxUDGPCTC-259" value="" style="edgeStyle=orthogonalEdgeStyle;rounded=0;orthogonalLoop=1;jettySize=auto;html=1;" edge="1" parent="1" target="Gco-z638cPNbxUDGPCTC-260">
          <mxGeometry relative="1" as="geometry">
            <mxPoint x="966" y="241.5" as="sourcePoint" />
            <Array as="points">
              <mxPoint x="966" y="252" />
            </Array>
          </mxGeometry>
        </mxCell>
        <mxCell id="Gco-z638cPNbxUDGPCTC-260" value="devise&lt;br&gt;&lt;br&gt;id devise&lt;br&gt;devise" style="whiteSpace=wrap;html=1;aspect=fixed;" vertex="1" parent="1">
          <mxGeometry x="1046" y="193" width="118" height="118" as="geometry" />
        </mxCell>
        <mxCell id="Gco-z638cPNbxUDGPCTC-264" value="" style="edgeStyle=orthogonalEdgeStyle;rounded=0;orthogonalLoop=1;jettySize=auto;html=1;" edge="1" parent="1" source="Gco-z638cPNbxUDGPCTC-261" target="Gco-z638cPNbxUDGPCTC-263">
          <mxGeometry relative="1" as="geometry" />
        </mxCell>
        <mxCell id="Gco-z638cPNbxUDGPCTC-261" value="région&lt;br&gt;&lt;br&gt;id région&lt;br&gt;région&lt;br&gt;id pays" style="whiteSpace=wrap;html=1;aspect=fixed;" vertex="1" parent="1">
          <mxGeometry x="-560" y="920" width="130" height="130" as="geometry" />
        </mxCell>
        <mxCell id="Gco-z638cPNbxUDGPCTC-263" value="pays&lt;br&gt;&lt;br&gt;id pays&lt;br&gt;pays" style="whiteSpace=wrap;html=1;aspect=fixed;" vertex="1" parent="1">
          <mxGeometry x="-731" y="920" width="130" height="130" as="geometry" />
        </mxCell>
        <mxCell id="Gco-z638cPNbxUDGPCTC-265" value="type de service&lt;br&gt;&lt;br&gt;id type de service&lt;br&gt;type de service(Express, Standard)" style="whiteSpace=wrap;html=1;aspect=fixed;" vertex="1" parent="1">
          <mxGeometry x="-80" y="920" width="180" height="180" as="geometry" />
        </mxCell>
        <mxCell id="Gco-z638cPNbxUDGPCTC-267" value="" style="edgeStyle=orthogonalEdgeStyle;rounded=0;orthogonalLoop=1;jettySize=auto;html=1;" edge="1" parent="1">
          <mxGeometry relative="1" as="geometry">
            <mxPoint x="-120" y="860" as="sourcePoint" />
            <mxPoint x="-120" y="920" as="targetPoint" />
            <Array as="points">
              <mxPoint x="-120" y="880" />
              <mxPoint x="-120" y="880" />
            </Array>
          </mxGeometry>
        </mxCell>
      </root>
    </mxGraphModel>
  </diagram>
</mxfile>
